<svg xmlns="http://www.w3.org/2000/svg">
<circle cx="200" cy="200" r="50" style="stroke:rgb(200,50,100);  stroke-width:5; fill:rgb(100,100,100)" />
 <line x1="188" y1="163" x2="188" y2="237"
style="stroke:rgb(200,50,100); stroke-width:25" />
<polyline points="163,200 126,163 126,176 109,159"
style="fill:none; stroke:rgb(200,50,100); stroke-width:5" />
<polyline points="155,175 163,200 138,192 155,175
" style="fill:rgb(200,50,100); stroke:rgb(200,50,100); stroke-width:5" />

  <g transform="translate(400,200) rotate(0)" style="stroke:rgb(100,150,250); stroke-width: 2">
    <line x1="0" y1="0" x2="50" y2="0"/>
    <polygon points="50,-50 50,50 125,0" style="fill:rgb(100,150,250); stroke-width: 0"/>
    <line x1="125" y1="-50" x2="125" y2="50"/>
    <line x1="150" y1="-50" x2="150" y2="50"/>
    <line x1="150" y1="0" x2="200" y2="0"/>
  </g>

<g transform="translate(200,400) rotate(90 200 400)">
<circle cx="200" cy="400" r="100" style="stroke:rgb(100,200,150);  stroke-width:5; fill:rgb(100,100,100)" />
 <line x1="175" y1="325" x2="175" y2="475"
style="stroke:rgb(100,200,150); stroke-width:25" />
<polyline points="150,400 75,325 75,351 40,316"
style="fill:none; stroke:rgb(100,200,150); stroke-width:5" />
<polyline points="142,375 150,400 125,392 142,375
" style="fill:rgb(100,200,150); stroke:rgb(100,200,150); stroke-width:5" />
</g>

  <g transform="translate(500,500) rotate(90)" style="stroke:rgb(0,0,250); stroke-width: 2">
    <line x1="0" y1="0" x2="50" y2="0"/>
    <polygon points="50,-50 50,50 125,0" style="fill:rgb(0,250,0); stroke-width: 0"/>
    <line x1="125" y1="-50" x2="125" y2="50"/>
    <line x1="150" y1="-50" x2="150" y2="50"/>
    <line x1="150" y1="0" x2="200" y2="0"/>
  </g>

<g transform="translate(350,200) rotate(60 350 200)">
<circle cx="350" cy="200" r="100" style="stroke:rgb(0,0,250);  stroke-width:7; fill:rgb(200,200,0)" />
 <line x1="325" y1="125" x2="325" y2="275"
style="stroke:rgb(0,0,250); stroke-width:35" />
<polyline points="290,200 215,125 215,151 180,116"
style="fill:none; stroke:rgb(0,0,250); stroke-width:7" />
<polyline points="279,165 290,200 255,189 279,165
" style="fill:rgb(0,0,250); stroke:rgb(0,0,250); stroke-width:7" />
</g>
</svg>